<?xml version="1.0" encoding="utf-8"?>
<!-- Generator: Adobe Illustrator 16.0.0, SVG Export Plug-In . SVG Version: 6.00 Build 0)  -->
<!DOCTYPE svg PUBLIC "-//W3C//DTD SVG 1.1//EN" "http://www.w3.org/Graphics/SVG/1.1/DTD/svg11.dtd">
<svg version="1.1" id="Layer_1" xmlns="http://www.w3.org/2000/svg" xmlns:xlink="http://www.w3.org/1999/xlink" x="0px" y="0px"
	 width="86.4px" height="36px" viewBox="0 0 86.4 36" enable-background="new 0 0 86.4 36" xml:space="preserve">
<rect fill="none" width="26.533" height="32.666"/>
<text transform="matrix(1 0 0 1 0 24.8496)" font-family="'MyriadPro-Regular'" font-size="35">V</text>
<rect x="61.867" y="1.333" fill="none" width="26.533" height="32.667"/>
<text transform="matrix(1 0 0 1 61.8672 26.1836)" font-family="'MyriadPro-Regular'" font-size="35">L</text>
<rect x="48.816" y="1.335" fill="none" width="26.533" height="32.665"/>
<text transform="matrix(1 0 0 1 48.8164 16.9541)" font-family="'MyriadPro-Regular'" font-size="22">A</text>
<rect x="21.316" y="0.835" fill="none" width="26.533" height="32.665"/>
<text transform="matrix(1 0 0 1 21.3164 16.4546)" font-family="'MyriadPro-Regular'" font-size="22">I</text>
<rect x="28.551" y="1" fill="none" width="26.533" height="32.666"/>
<text transform="matrix(1 0 0 1 28.5508 25.8496)" font-family="'MyriadPro-Regular'" font-size="35">R</text>
<rect x="19.667" y="19.333" width="8.884" height="1.667"/>
<rect x="50.816" y="19.333" width="10.268" height="1.667"/>
</svg>
